{
    "asset" : {
        "generator" : "Khronos glTF Blender I/O v1.1.46",
        "version" : "2.0"
    },
    "scene" : 0,
    "scenes" : [
        {
            "name" : "Scene",
            "nodes" : [
                0
            ]
        }
    ],
    "nodes" : [
        {
            "mesh" : 0,
            "name" : "GrassBunch4",
            "translation" : [
                -0.0012854337692260742,
                0,
                0.0004489719867706299
            ]
        }
    ],
    "materials" : [
        {
            "doubleSided" : true,
            "emissiveFactor" : [
                0,
                0,
                0
            ],
            "name" : "palette",
            "pbrMetallicRoughness" : {
                "baseColorTexture" : {
                    "index" : 0,
                    "texCoord" : 0
                },
                "metallicFactor" : 0,
                "roughnessFactor" : 0.5
            }
        }
    ],
    "meshes" : [
        {
            "name" : "Circle.043",
            "primitives" : [
                {
                    "attributes" : {
                        "POSITION" : 0,
                        "NORMAL" : 1,
                        "TEXCOORD_0" : 2
                    },
                    "indices" : 3,
                    "material" : 0
                }
            ]
        }
    ],
    "textures" : [
        {
            "source" : 0
        }
    ],
    "images" : [
        {
            "bufferView" : 4,
            "mimeType" : "image/png",
            "name" : "grass"
        }
    ],
    "accessors" : [
        {
            "bufferView" : 0,
            "componentType" : 5126,
            "count" : 198,
            "max" : [
                0.3774279057979584,
                0.6302369832992554,
                0.3250724673271179
            ],
            "min" : [
                -0.3357866406440735,
                -0.01589406095445156,
                -0.3807288110256195
            ],
            "type" : "VEC3"
        },
        {
            "bufferView" : 1,
            "componentType" : 5126,
            "count" : 198,
            "type" : "VEC3"
        },
        {
            "bufferView" : 2,
            "componentType" : 5126,
            "count" : 198,
            "type" : "VEC2"
        },
        {
            "bufferView" : 3,
            "componentType" : 5123,
            "count" : 270,
            "type" : "SCALAR"
        }
    ],
    "bufferViews" : [
        {
            "buffer" : 0,
            "byteLength" : 2376,
            "byteOffset" : 0
        },
        {
            "buffer" : 0,
            "byteLength" : 2376,
            "byteOffset" : 2376
        },
        {
            "buffer" : 0,
            "byteLength" : 1584,
            "byteOffset" : 4752
        },
        {
            "buffer" : 0,
            "byteLength" : 540,
            "byteOffset" : 6336
        },
        {
            "buffer" : 0,
            "byteLength" : 130,
            "byteOffset" : 6876
        }
    ],
    "buffers" : [
        {
            "byteLength" : 7008,
            "uri" : "data:application/octet-stream;base64,"
        }
    ]
}
