{
    "asset" : {
        "generator" : "Khronos glTF Blender I/O v1.1.46",
        "version" : "2.0"
    },
    "scene" : 0,
    "scenes" : [
        {
            "name" : "Scene",
            "nodes" : [
                1,
                2
            ]
        }
    ],
    "nodes" : [
        {
            "mesh" : 0,
            "name" : "Cube.001",
            "rotation" : [
                0,
                0,
                0.13173078000545502,
                0.9912855625152588
            ],
            "translation" : [
                0,
                4.612499237060547,
                0
            ]
        },
        {
            "children" : [
                0
            ],
            "mesh" : 1,
            "name" : "Cube",
            "scale" : [
                0.15000000596046448,
                0.15000000596046448,
                0.15000000596046448
            ]
        },
        {
            "mesh" : 2,
            "name" : "Plane",
            "scale" : [
                0.25,
                0.25,
                0.25
            ]
        }
    ],
    "animations" : [
        {
            "channels" : [
                {
                    "sampler" : 0,
                    "target" : {
                        "node" : 0,
                        "path" : "rotation"
                    }
                }
            ],
            "name" : "spin",
            "samplers" : [
                {
                    "input" : 12,
                    "interpolation" : "LINEAR",
                    "output" : 13
                }
            ]
        }
    ],
    "materials" : [
        {
            "doubleSided" : true,
            "emissiveFactor" : [
                0,
                0,
                0
            ],
            "name" : "palette",
            "pbrMetallicRoughness" : {
                "baseColorTexture" : {
                    "index" : 0,
                    "texCoord" : 0
                },
                "metallicFactor" : 0,
                "roughnessFactor" : 0.5
            }
        }
    ],
    "meshes" : [
        {
            "name" : "Cube.002",
            "primitives" : [
                {
                    "attributes" : {
                        "POSITION" : 0,
                        "NORMAL" : 1,
                        "TEXCOORD_0" : 2
                    },
                    "indices" : 3,
                    "material" : 0
                }
            ]
        },
        {
            "name" : "Cube",
            "primitives" : [
                {
                    "attributes" : {
                        "POSITION" : 4,
                        "NORMAL" : 5,
                        "TEXCOORD_0" : 6
                    },
                    "indices" : 7,
                    "material" : 0
                }
            ]
        },
        {
            "name" : "Plane",
            "primitives" : [
                {
                    "attributes" : {
                        "POSITION" : 8,
                        "NORMAL" : 9,
                        "TEXCOORD_0" : 10
                    },
                    "indices" : 11,
                    "material" : 0
                }
            ]
        }
    ],
    "textures" : [
        {
            "source" : 0
        }
    ],
    "images" : [
        {
            "bufferView" : 4,
            "mimeType" : "image/png",
            "name" : "mill"
        }
    ],
    "accessors" : [
        {
            "bufferView" : 0,
            "componentType" : 5126,
            "count" : 256,
            "max" : [
                2.3349928855895996,
                2.3350605964660645,
                -0.9056677222251892
            ],
            "min" : [
                -2.33492112159729,
                -2.3348536491394043,
                -1.2678883075714111
            ],
            "type" : "VEC3"
        },
        {
            "bufferView" : 1,
            "componentType" : 5126,
            "count" : 256,
            "type" : "VEC3"
        },
        {
            "bufferView" : 2,
            "componentType" : 5126,
            "count" : 256,
            "type" : "VEC2"
        },
        {
            "bufferView" : 3,
            "componentType" : 5123,
            "count" : 384,
            "type" : "SCALAR"
        },
        {
            "bufferView" : 5,
            "componentType" : 5126,
            "count" : 1477,
            "max" : [
                1.1624999046325684,
                5.997279644012451,
                1.2626267671585083
            ],
            "min" : [
                -1.1625001430511475,
                0,
                -1.162500262260437
            ],
            "type" : "VEC3"
        },
        {
            "bufferView" : 6,
            "componentType" : 5126,
            "count" : 1477,
            "type" : "VEC3"
        },
        {
            "bufferView" : 7,
            "componentType" : 5126,
            "count" : 1477,
            "type" : "VEC2"
        },
        {
            "bufferView" : 8,
            "componentType" : 5123,
            "count" : 2241,
            "type" : "SCALAR"
        },
        {
            "bufferView" : 9,
            "componentType" : 5126,
            "count" : 260,
            "max" : [
                0.9999998807907104,
                0.25,
                1.0000003576278687
            ],
            "min" : [
                -1.0000001192092896,
                -2,
                -1.0000001192092896
            ],
            "type" : "VEC3"
        },
        {
            "bufferView" : 10,
            "componentType" : 5126,
            "count" : 260,
            "type" : "VEC3"
        },
        {
            "bufferView" : 11,
            "componentType" : 5126,
            "count" : 260,
            "type" : "VEC2"
        },
        {
            "bufferView" : 12,
            "componentType" : 5123,
            "count" : 390,
            "type" : "SCALAR"
        },
        {
            "bufferView" : 13,
            "componentType" : 5126,
            "count" : 240,
            "max" : [
                4
            ],
            "min" : [
                0.016666666666666666
            ],
            "type" : "SCALAR"
        },
        {
            "bufferView" : 14,
            "componentType" : 5126,
            "count" : 240,
            "type" : "VEC4"
        }
    ],
    "bufferViews" : [
        {
            "buffer" : 0,
            "byteLength" : 3072,
            "byteOffset" : 0
        },
        {
            "buffer" : 0,
            "byteLength" : 3072,
            "byteOffset" : 3072
        },
        {
            "buffer" : 0,
            "byteLength" : 2048,
            "byteOffset" : 6144
        },
        {
            "buffer" : 0,
            "byteLength" : 768,
            "byteOffset" : 8192
        },
        {
            "buffer" : 0,
            "byteLength" : 166,
            "byteOffset" : 8960
        },
        {
            "buffer" : 0,
            "byteLength" : 17724,
            "byteOffset" : 9128
        },
        {
            "buffer" : 0,
            "byteLength" : 17724,
            "byteOffset" : 26852
        },
        {
            "buffer" : 0,
            "byteLength" : 11816,
            "byteOffset" : 44576
        },
        {
            "buffer" : 0,
            "byteLength" : 4482,
            "byteOffset" : 56392
        },
        {
            "buffer" : 0,
            "byteLength" : 3120,
            "byteOffset" : 60876
        },
        {
            "buffer" : 0,
            "byteLength" : 3120,
            "byteOffset" : 63996
        },
        {
            "buffer" : 0,
            "byteLength" : 2080,
            "byteOffset" : 67116
        },
        {
            "buffer" : 0,
            "byteLength" : 780,
            "byteOffset" : 69196
        },
        {
            "buffer" : 0,
            "byteLength" : 960,
            "byteOffset" : 69976
        },
        {
            "buffer" : 0,
            "byteLength" : 3840,
            "byteOffset" : 70936
        }
    ],
    "buffers" : [
        {
            "byteLength" : 74776,
            "uri" : "data:application/octet-stream;base64,"
        }
    ]
}
