<svg id="vlpa" xmlns="http://www.w3.org/2000/svg" viewBox="0 0 1075.19 452.3"><polygon points="1045.19 294.8 1045.19 300.3 1037.19 300.3 1037.19 319.4 1031.19 319.4 1031.19 300.3 1023.19 300.3 1023.19 294.8 1045.19 294.8" style="fill:#fff"/><polygon points="1069.19 319.4 1069.19 300.7 1069.19 300.7 1064.19 319.4 1059.19 319.4 1053.19 300.7 1053.19 300.7 1053.19 319.4 1047.19 319.4 1047.19 294.8 1057.19 294.8 1061.19 311.2 1065.19 294.8 1075.19 294.8 1075.19 319.4 1069.19 319.4" style="fill:#fff"/><path d="M798.66,318a68.49,68.49,0,0,1-27,5.7c-14.34,0-27.28-2.5-38.73-7.5a82.68,82.68,0,0,1-29-20.7,91.34,91.34,0,0,1-18.12-31,114.81,114.81,0,0,1-6.28-38.4,118.73,118.73,0,0,1,6.28-39.2,92.47,92.47,0,0,1,18-31.5,82.41,82.41,0,0,1,29-21.1c11.45-5.1,24.3-7.7,38.73-7.7a90,90,0,0,1,27.89,4.4,80.22,80.22,0,0,1,24.39,12.8,68.57,68.57,0,0,1,17.93,20.9,72.27,72.27,0,0,1,8.66,28.5H811.21c-2.49-10.5-7.17-18.4-14.14-23.7s-15.44-7.9-25.5-7.9q-13.89,0-23.6,5.4a43.93,43.93,0,0,0-15.73,14.5,64.25,64.25,0,0,0-8.76,20.7,105.67,105.67,0,0,0-2.79,24,94.14,94.14,0,0,0,2.79,23.1,62.48,62.48,0,0,0,8.76,20.2A44.57,44.57,0,0,0,748,283.9q9.72,5.4,23.6,5.4c13.65,0,24.2-3.5,31.67-10.4s11.75-16.9,13-30.1H774.86V217.7h78.57V319.4H827.24l-4.18-21.3c-7.27,9.5-15.44,16.1-24.4,19.9Z" transform="translate(-4.21 0)" style="fill:#fff"/><path d="M920.25,131.3V284.4h91.31v34.9H879.12v-188Z" transform="translate(-4.21 0)" style="fill:#fff"/><path d="M725.87,342.7c-62.84,38.4-157,60.2-262.1,60.2-189.3,0-342.65-79.1-342.65-176.8S274.57,49.3,463.77,49.3c105.46,0,200,22.3,262.79,60.9C658.05,45.5,535,.1,394.37,0,178.87,0,4.21,101.2,4.21,226.1S178.87,452.3,394.27,452.3c140.11,0,262.79-45.3,331.6-109.6Z" transform="translate(-4.21 0)" style="fill:#fff"/><polygon points="216.69 273.6 180.39 116.6 146.09 116.6 199.89 321.3 232.09 321.3 277.39 160.5 322.09 321.3 354.39 321.3 410.09 116.6 373.79 116.6 337.49 273.6 293.69 116.6 260.49 116.6 216.69 273.6" style="fill:#fff"/><path d="M504.9,202.8a50,50,0,0,0-18.7-16.2c-7.6-3.8-16.4-5.7-26.2-5.7a70.94,70.94,0,0,0-29.5,5.9,55.33,55.33,0,0,0-20.6,16.3c-10.3,13.1-15.7,31.6-15.7,53.5a87,87,0,0,0,4.1,27.1,63.6,63.6,0,0,0,12,21.7c11,12.8,26.7,19.6,45.4,19.6,9.8,0,17.8-1,24.5-3.1a48.33,48.33,0,0,0,12.9-6.3,57.52,57.52,0,0,0,11.2-9.8,69.16,69.16,0,0,0,7.5-10.8c3.8-7,5.7-13.6,6.1-17l.3-2.3H491.5l-.1,1.9c-.7,8.7-12.1,24.2-32.4,24.2-29,0-35.9-21-36.4-39.5h97.2v-2.1a133,133,0,0,0-3.6-32.3c-2.7-9.9-6.4-18.3-11.3-25.1Zm-48,2.1c21.5,0,33,11.6,35.1,35.4H422.4C423.5,221,438.8,204.9,456.9,204.9Z" transform="translate(-4.21 0)" style="fill:#fff"/><path d="M654.1,222.4a65.81,65.81,0,0,0-11.3-21.7,53,53,0,0,0-18.4-14.6,57.28,57.28,0,0,0-24.7-5.3,48.44,48.44,0,0,0-22.4,5.4A46.93,46.93,0,0,0,562.7,198V135.2H536.1v186h25.3V308.5a41,41,0,0,0,8.9,8.7c7.2,5.2,16.1,7.8,26.4,7.8,11.1,0,21.1-2.5,29.5-7.4a55.36,55.36,0,0,0,18.9-18.7,81.27,81.27,0,0,0,9.9-24.6,111.74,111.74,0,0,0,2.9-25.4,85,85,0,0,0-3.8-26.5Zm-23.9,30.2c0,14.6-2.9,26.8-8.5,35.4-5.9,9.1-14.5,13.7-25.5,13.7-15.9,0-34.5-11.1-34.5-42.5,0-15,1.9-26.6,5.7-35.4,5.5-12.7,14.8-18.8,28.3-18.8,14.4,0,24.1,5.6,29.5,17.3C629.6,231.9,630.2,243.6,630.2,252.6Z" transform="translate(-4.21 0)" style="fill:#fff"/></svg>