{
    "asset" : {
        "generator" : "Khronos glTF Blender I/O v1.1.46",
        "version" : "2.0"
    },
    "scene" : 0,
    "scenes" : [
        {
            "name" : "Scene",
            "nodes" : [
                0
            ]
        }
    ],
    "nodes" : [
        {
            "mesh" : 0,
            "name" : "Tree1_1",
            "scale" : [
                0.19288240373134613,
                0.19288240373134613,
                0.19288240373134613
            ]
        }
    ],
    "materials" : [
        {
            "doubleSided" : true,
            "emissiveFactor" : [
                0,
                0,
                0
            ],
            "name" : "palette",
            "pbrMetallicRoughness" : {
                "baseColorTexture" : {
                    "index" : 0,
                    "texCoord" : 0
                },
                "metallicFactor" : 0,
                "roughnessFactor" : 0.5
            }
        }
    ],
    "meshes" : [
        {
            "name" : "Cube.002",
            "primitives" : [
                {
                    "attributes" : {
                        "POSITION" : 0,
                        "NORMAL" : 1,
                        "TEXCOORD_0" : 2
                    },
                    "indices" : 3,
                    "material" : 0
                }
            ]
        }
    ],
    "textures" : [
        {
            "source" : 0
        }
    ],
    "images" : [
        {
            "bufferView" : 4,
            "mimeType" : "image/png",
            "name" : "oak"
        }
    ],
    "accessors" : [
        {
            "bufferView" : 0,
            "componentType" : 5126,
            "count" : 1776,
            "max" : [
                2.373746871948242,
                6.317238807678223,
                1.7623484134674072
            ],
            "min" : [
                -2.7883806228637695,
                -6.777965609217063e-05,
                -1.6480882167816162
            ],
            "type" : "VEC3"
        },
        {
            "bufferView" : 1,
            "componentType" : 5126,
            "count" : 1776,
            "type" : "VEC3"
        },
        {
            "bufferView" : 2,
            "componentType" : 5126,
            "count" : 1776,
            "type" : "VEC2"
        },
        {
            "bufferView" : 3,
            "componentType" : 5123,
            "count" : 1776,
            "type" : "SCALAR"
        }
    ],
    "bufferViews" : [
        {
            "buffer" : 0,
            "byteLength" : 21312,
            "byteOffset" : 0
        },
        {
            "buffer" : 0,
            "byteLength" : 21312,
            "byteOffset" : 21312
        },
        {
            "buffer" : 0,
            "byteLength" : 14208,
            "byteOffset" : 42624
        },
        {
            "buffer" : 0,
            "byteLength" : 3552,
            "byteOffset" : 56832
        },
        {
            "buffer" : 0,
            "byteLength" : 145,
            "byteOffset" : 60384
        }
    ],
    "buffers" : [
        {
            "byteLength" : 60532,
            "uri" : "data:application/octet-stream;base64,"
        }
    ]
}
