{
    "asset" : {
        "generator" : "Khronos glTF Blender I/O v1.1.46",
        "version" : "2.0"
    },
    "scene" : 0,
    "scenes" : [
        {
            "name" : "Scene",
            "nodes" : [
                0,
                1
            ]
        }
    ],
    "nodes" : [
        {
            "mesh" : 0,
            "name" : "trunk",
            "rotation" : [
                -0.0038974403869360685,
                -0.02731357514858246,
                -0.027622513473033905,
                0.999237596988678
            ],
            "scale" : [
                0.002044431632384658,
                0.028126928955316544,
                0.002044431632384658
            ]
        },
        {
            "mesh" : 1,
            "name" : "canopy",
            "rotation" : [
                -0.017530621960759163,
                0.009105739183723927,
                -0.018291732296347618,
                0.9996375441551208
            ],
            "scale" : [
                0.002922103740274906,
                0.028126928955316544,
                0.002922103740274906
            ]
        }
    ],
    "meshes" : [
        {
            "name" : "Cube.014",
            "primitives" : [
                {
                    "attributes" : {
                        "POSITION" : 0,
                        "NORMAL" : 1,
                        "TEXCOORD_0" : 2
                    },
                    "indices" : 3
                }
            ]
        },
        {
            "name" : "Cube.017",
            "primitives" : [
                {
                    "attributes" : {
                        "POSITION" : 4,
                        "NORMAL" : 5,
                        "TEXCOORD_0" : 6
                    },
                    "indices" : 7
                }
            ]
        }
    ],
    "accessors" : [
        {
            "bufferView" : 0,
            "componentType" : 5126,
            "count" : 180,
            "max" : [
                15.577095985412598,
                1.185487985610962,
                14.968733787536621
            ],
            "min" : [
                -15.383480072021484,
                -1.2292060852050781,
                -16.00962257385254
            ],
            "type" : "VEC3"
        },
        {
            "bufferView" : 1,
            "componentType" : 5126,
            "count" : 180,
            "type" : "VEC3"
        },
        {
            "bufferView" : 2,
            "componentType" : 5126,
            "count" : 180,
            "type" : "VEC2"
        },
        {
            "bufferView" : 3,
            "componentType" : 5123,
            "count" : 270,
            "type" : "SCALAR"
        },
        {
            "bufferView" : 4,
            "componentType" : 5126,
            "count" : 360,
            "max" : [
                12.34176254272461,
                2.4641337394714355,
                12.951760292053223
            ],
            "min" : [
                -12.975395202636719,
                0.6551567912101746,
                -13.261563301086426
            ],
            "type" : "VEC3"
        },
        {
            "bufferView" : 5,
            "componentType" : 5126,
            "count" : 360,
            "type" : "VEC3"
        },
        {
            "bufferView" : 6,
            "componentType" : 5126,
            "count" : 360,
            "type" : "VEC2"
        },
        {
            "bufferView" : 7,
            "componentType" : 5123,
            "count" : 432,
            "type" : "SCALAR"
        }
    ],
    "bufferViews" : [
        {
            "buffer" : 0,
            "byteLength" : 2160,
            "byteOffset" : 0
        },
        {
            "buffer" : 0,
            "byteLength" : 2160,
            "byteOffset" : 2160
        },
        {
            "buffer" : 0,
            "byteLength" : 1440,
            "byteOffset" : 4320
        },
        {
            "buffer" : 0,
            "byteLength" : 540,
            "byteOffset" : 5760
        },
        {
            "buffer" : 0,
            "byteLength" : 4320,
            "byteOffset" : 6300
        },
        {
            "buffer" : 0,
            "byteLength" : 4320,
            "byteOffset" : 10620
        },
        {
            "buffer" : 0,
            "byteLength" : 2880,
            "byteOffset" : 14940
        },
        {
            "buffer" : 0,
            "byteLength" : 864,
            "byteOffset" : 17820
        }
    ],
    "buffers" : [
        {
            "byteLength" : 18684,
            "uri" : "data:application/octet-stream;base64,"
        }
    ]
}
