{
    "asset" : {
        "generator" : "Khronos glTF Blender I/O v1.1.46",
        "version" : "2.0"
    },
    "scene" : 0,
    "scenes" : [
        {
            "name" : "Scene",
            "nodes" : [
                0,
                1
            ]
        }
    ],
    "nodes" : [
        {
            "mesh" : 0,
            "name" : "canopy",
            "rotation" : [
                0,
                0.9092459082603455,
                0,
                0.41625937819480896
            ],
            "scale" : [
                1.079744815826416,
                1.079744815826416,
                1.079744815826416
            ]
        },
        {
            "mesh" : 1,
            "name" : "trunk",
            "rotation" : [
                0,
                0.9092459082603455,
                0,
                0.41625937819480896
            ],
            "scale" : [
                1.079744815826416,
                1.079744815826416,
                1.079744815826416
            ]
        }
    ],
    "materials" : [
        {
            "doubleSided" : true,
            "emissiveFactor" : [
                0,
                0,
                0
            ],
            "name" : "canopy",
            "pbrMetallicRoughness" : {
                "baseColorFactor" : [
                    0.08708316087722778,
                    0.1921054571866989,
                    0.012816949747502804,
                    1
                ],
                "metallicFactor" : 0,
                "roughnessFactor" : 0.5
            }
        },
        {
            "doubleSided" : true,
            "emissiveFactor" : [
                0,
                0,
                0
            ],
            "name" : "trunk",
            "pbrMetallicRoughness" : {
                "baseColorFactor" : [
                    0.12977032363414764,
                    0.06692320853471756,
                    0.01792529970407486,
                    1
                ],
                "metallicFactor" : 0,
                "roughnessFactor" : 0.5
            }
        }
    ],
    "meshes" : [
        {
            "name" : "model",
            "primitives" : [
                {
                    "attributes" : {
                        "POSITION" : 0,
                        "NORMAL" : 1,
                        "TEXCOORD_0" : 2
                    },
                    "indices" : 3,
                    "material" : 0
                }
            ]
        },
        {
            "name" : "model.001",
            "primitives" : [
                {
                    "attributes" : {
                        "POSITION" : 4,
                        "NORMAL" : 5,
                        "TEXCOORD_0" : 6
                    },
                    "indices" : 7,
                    "material" : 1
                }
            ]
        }
    ],
    "accessors" : [
        {
            "bufferView" : 0,
            "componentType" : 5126,
            "count" : 258,
            "max" : [
                1.9735078811645508,
                4.094798564910889,
                0.9982057809829712
            ],
            "min" : [
                -1.3277835845947266,
                1.8457883596420288,
                -1.4113433361053467
            ],
            "type" : "VEC3"
        },
        {
            "bufferView" : 1,
            "componentType" : 5126,
            "count" : 258,
            "type" : "VEC3"
        },
        {
            "bufferView" : 2,
            "componentType" : 5126,
            "count" : 258,
            "type" : "VEC2"
        },
        {
            "bufferView" : 3,
            "componentType" : 5123,
            "count" : 258,
            "type" : "SCALAR"
        },
        {
            "bufferView" : 4,
            "componentType" : 5126,
            "count" : 210,
            "max" : [
                1.2548295259475708,
                2.844191789627075,
                0.585895836353302
            ],
            "min" : [
                -0.7418627738952637,
                1.6907824829104356e-06,
                -0.6391517519950867
            ],
            "type" : "VEC3"
        },
        {
            "bufferView" : 5,
            "componentType" : 5126,
            "count" : 210,
            "type" : "VEC3"
        },
        {
            "bufferView" : 6,
            "componentType" : 5126,
            "count" : 210,
            "type" : "VEC2"
        },
        {
            "bufferView" : 7,
            "componentType" : 5123,
            "count" : 210,
            "type" : "SCALAR"
        }
    ],
    "bufferViews" : [
        {
            "buffer" : 0,
            "byteLength" : 3096,
            "byteOffset" : 0
        },
        {
            "buffer" : 0,
            "byteLength" : 3096,
            "byteOffset" : 3096
        },
        {
            "buffer" : 0,
            "byteLength" : 2064,
            "byteOffset" : 6192
        },
        {
            "buffer" : 0,
            "byteLength" : 516,
            "byteOffset" : 8256
        },
        {
            "buffer" : 0,
            "byteLength" : 2520,
            "byteOffset" : 8772
        },
        {
            "buffer" : 0,
            "byteLength" : 2520,
            "byteOffset" : 11292
        },
        {
            "buffer" : 0,
            "byteLength" : 1680,
            "byteOffset" : 13812
        },
        {
            "buffer" : 0,
            "byteLength" : 420,
            "byteOffset" : 15492
        }
    ],
    "buffers" : [
        {
            "byteLength" : 15912,
            "uri" : "data:application/octet-stream;base64,"
        }
    ]
}
