{
    "asset" : {
        "generator" : "Khronos glTF Blender I/O v1.1.46",
        "version" : "2.0"
    },
    "scene" : 0,
    "scenes" : [
        {
            "name" : "Scene",
            "nodes" : [
                0,
                1
            ]
        }
    ],
    "nodes" : [
        {
            "mesh" : 0,
            "name" : "canopy",
            "scale" : [
                0.19288240373134613,
                0.19288240373134613,
                0.19288240373134613
            ]
        },
        {
            "mesh" : 1,
            "name" : "trunk",
            "scale" : [
                0.19288240373134613,
                0.19288240373134613,
                0.19288240373134613
            ]
        }
    ],
    "materials" : [
        {
            "doubleSided" : true,
            "emissiveFactor" : [
                0,
                0,
                0
            ],
            "name" : "canopy",
            "pbrMetallicRoughness" : {
                "baseColorFactor" : [
                    0.03168274089694023,
                    0.13286346197128296,
                    0,
                    1
                ],
                "metallicFactor" : 0,
                "roughnessFactor" : 0.5
            }
        },
        {
            "doubleSided" : true,
            "emissiveFactor" : [
                0,
                0,
                0
            ],
            "name" : "trunk",
            "pbrMetallicRoughness" : {
                "baseColorFactor" : [
                    0.057802438735961914,
                    0.019738053902983665,
                    0,
                    1
                ],
                "metallicFactor" : 0,
                "roughnessFactor" : 0.5
            }
        }
    ],
    "meshes" : [
        {
            "name" : "Cube.002",
            "primitives" : [
                {
                    "attributes" : {
                        "POSITION" : 0,
                        "NORMAL" : 1,
                        "TEXCOORD_0" : 2
                    },
                    "indices" : 3,
                    "material" : 0
                }
            ]
        },
        {
            "name" : "Cube.001",
            "primitives" : [
                {
                    "attributes" : {
                        "POSITION" : 4,
                        "NORMAL" : 5,
                        "TEXCOORD_0" : 6
                    },
                    "indices" : 7,
                    "material" : 1
                }
            ]
        }
    ],
    "accessors" : [
        {
            "bufferView" : 0,
            "componentType" : 5126,
            "count" : 222,
            "max" : [
                2.342501401901245,
                6.328466415405273,
                1.7701836824417114
            ],
            "min" : [
                -2.855678081512451,
                1.7925517559051514,
                -1.7568167448043823
            ],
            "type" : "VEC3"
        },
        {
            "bufferView" : 1,
            "componentType" : 5126,
            "count" : 222,
            "type" : "VEC3"
        },
        {
            "bufferView" : 2,
            "componentType" : 5126,
            "count" : 222,
            "type" : "VEC2"
        },
        {
            "bufferView" : 3,
            "componentType" : 5123,
            "count" : 222,
            "type" : "SCALAR"
        },
        {
            "bufferView" : 4,
            "componentType" : 5126,
            "count" : 651,
            "max" : [
                1.294952392578125,
                3.953754186630249,
                0.8122736215591431
            ],
            "min" : [
                -1.3160040378570557,
                -6.777965609217063e-05,
                -0.9535707235336304
            ],
            "type" : "VEC3"
        },
        {
            "bufferView" : 5,
            "componentType" : 5126,
            "count" : 651,
            "type" : "VEC3"
        },
        {
            "bufferView" : 6,
            "componentType" : 5126,
            "count" : 651,
            "type" : "VEC2"
        },
        {
            "bufferView" : 7,
            "componentType" : 5123,
            "count" : 651,
            "type" : "SCALAR"
        }
    ],
    "bufferViews" : [
        {
            "buffer" : 0,
            "byteLength" : 2664,
            "byteOffset" : 0
        },
        {
            "buffer" : 0,
            "byteLength" : 2664,
            "byteOffset" : 2664
        },
        {
            "buffer" : 0,
            "byteLength" : 1776,
            "byteOffset" : 5328
        },
        {
            "buffer" : 0,
            "byteLength" : 444,
            "byteOffset" : 7104
        },
        {
            "buffer" : 0,
            "byteLength" : 7812,
            "byteOffset" : 7548
        },
        {
            "buffer" : 0,
            "byteLength" : 7812,
            "byteOffset" : 15360
        },
        {
            "buffer" : 0,
            "byteLength" : 5208,
            "byteOffset" : 23172
        },
        {
            "buffer" : 0,
            "byteLength" : 1302,
            "byteOffset" : 28380
        }
    ],
    "buffers" : [
        {
            "byteLength" : 29684,
            "uri" : "data:application/octet-stream;base64,"
        }
    ]
}
