{
    "asset" : {
        "generator" : "Khronos glTF Blender I/O v1.1.46",
        "version" : "2.0"
    },
    "scene" : 0,
    "scenes" : [
        {
            "name" : "Scene",
            "nodes" : [
                0,
                1
            ]
        }
    ],
    "nodes" : [
        {
            "mesh" : 0,
            "name" : "trunk",
            "rotation" : [
                0,
                0.12603653967380524,
                0,
                0.99202561378479
            ],
            "scale" : [
                0.26642030477523804,
                0.26642030477523804,
                0.26642030477523804
            ]
        },
        {
            "mesh" : 1,
            "name" : "canopy",
            "rotation" : [
                0,
                -0.3247813880443573,
                0,
                0.945789098739624
            ],
            "scale" : [
                0.26642030477523804,
                0.26642030477523804,
                0.26642030477523804
            ]
        }
    ],
    "materials" : [
        {
            "doubleSided" : true,
            "emissiveFactor" : [
                0,
                0,
                0
            ],
            "name" : "trunk",
            "pbrMetallicRoughness" : {
                "baseColorFactor" : [
                    0.800000011920929,
                    0.800000011920929,
                    0.800000011920929,
                    1
                ],
                "metallicFactor" : 0,
                "roughnessFactor" : 0.5
            }
        },
        {
            "doubleSided" : true,
            "emissiveFactor" : [
                0,
                0,
                0
            ],
            "name" : "canopy",
            "pbrMetallicRoughness" : {
                "baseColorFactor" : [
                    0.800000011920929,
                    0.800000011920929,
                    0.800000011920929,
                    1
                ],
                "metallicFactor" : 0,
                "roughnessFactor" : 0.4000000059604645
            }
        }
    ],
    "meshes" : [
        {
            "name" : "Cube.007",
            "primitives" : [
                {
                    "attributes" : {
                        "POSITION" : 0,
                        "NORMAL" : 1,
                        "TEXCOORD_0" : 2
                    },
                    "indices" : 3,
                    "material" : 0
                }
            ]
        },
        {
            "name" : "Cube.012",
            "primitives" : [
                {
                    "attributes" : {
                        "POSITION" : 4,
                        "NORMAL" : 5,
                        "TEXCOORD_0" : 6
                    },
                    "indices" : 7,
                    "material" : 1
                }
            ]
        }
    ],
    "accessors" : [
        {
            "bufferView" : 0,
            "componentType" : 5126,
            "count" : 592,
            "max" : [
                1.6470742225646973,
                1.3652396202087402,
                1.6542103290557861
            ],
            "min" : [
                -1.7381142377853394,
                -1.590315341949463,
                -1.8140290975570679
            ],
            "type" : "VEC3"
        },
        {
            "bufferView" : 1,
            "componentType" : 5126,
            "count" : 592,
            "type" : "VEC3"
        },
        {
            "bufferView" : 2,
            "componentType" : 5126,
            "count" : 592,
            "type" : "VEC2"
        },
        {
            "bufferView" : 3,
            "componentType" : 5123,
            "count" : 888,
            "type" : "SCALAR"
        },
        {
            "bufferView" : 4,
            "componentType" : 5126,
            "count" : 408,
            "max" : [
                2.0397133827209473,
                2.1606123447418213,
                1.7124404907226562
            ],
            "min" : [
                -2.2311248779296875,
                0.8433519005775452,
                -2.149244785308838
            ],
            "type" : "VEC3"
        },
        {
            "bufferView" : 5,
            "componentType" : 5126,
            "count" : 408,
            "type" : "VEC3"
        },
        {
            "bufferView" : 6,
            "componentType" : 5126,
            "count" : 408,
            "type" : "VEC2"
        },
        {
            "bufferView" : 7,
            "componentType" : 5123,
            "count" : 612,
            "type" : "SCALAR"
        }
    ],
    "bufferViews" : [
        {
            "buffer" : 0,
            "byteLength" : 7104,
            "byteOffset" : 0
        },
        {
            "buffer" : 0,
            "byteLength" : 7104,
            "byteOffset" : 7104
        },
        {
            "buffer" : 0,
            "byteLength" : 4736,
            "byteOffset" : 14208
        },
        {
            "buffer" : 0,
            "byteLength" : 1776,
            "byteOffset" : 18944
        },
        {
            "buffer" : 0,
            "byteLength" : 4896,
            "byteOffset" : 20720
        },
        {
            "buffer" : 0,
            "byteLength" : 4896,
            "byteOffset" : 25616
        },
        {
            "buffer" : 0,
            "byteLength" : 3264,
            "byteOffset" : 30512
        },
        {
            "buffer" : 0,
            "byteLength" : 1224,
            "byteOffset" : 33776
        }
    ],
    "buffers" : [
        {
            "byteLength" : 35000,
            "uri" : "data:application/octet-stream;base64,"
        }
    ]
}
