{
    "asset" : {
        "generator" : "Khronos glTF Blender I/O v1.1.46",
        "version" : "2.0"
    },
    "scene" : 0,
    "scenes" : [
        {
            "name" : "Scene",
            "nodes" : [
                0,
                1
            ]
        }
    ],
    "nodes" : [
        {
            "mesh" : 0,
            "name" : "trunk",
            "rotation" : [
                0.024980055168271065,
                -0.997887372970581,
                -0.007871948182582855,
                0.05945451557636261
            ],
            "scale" : [
                0.46004900336265564,
                0.5980338454246521,
                0.46024709939956665
            ]
        },
        {
            "mesh" : 1,
            "name" : "canopy",
            "rotation" : [
                0.024980055168271065,
                -0.997887372970581,
                -0.007871948182582855,
                0.05945451557636261
            ],
            "scale" : [
                0.46004900336265564,
                0.5980338454246521,
                0.46024709939956665
            ]
        }
    ],
    "materials" : [
        {
            "doubleSided" : true,
            "emissiveFactor" : [
                0,
                0,
                0
            ],
            "name" : "trunk",
            "pbrMetallicRoughness" : {
                "baseColorFactor" : [
                    0.1065371036529541,
                    0.04444797709584236,
                    0.011063074693083763,
                    1
                ],
                "metallicFactor" : 0,
                "roughnessFactor" : 0.5
            }
        },
        {
            "doubleSided" : true,
            "emissiveFactor" : [
                0,
                0,
                0
            ],
            "name" : "canopy",
            "pbrMetallicRoughness" : {
                "baseColorFactor" : [
                    0.06789051741361618,
                    0.24175772070884705,
                    0.09068652987480164,
                    1
                ],
                "metallicFactor" : 0,
                "roughnessFactor" : 0.5
            }
        }
    ],
    "meshes" : [
        {
            "name" : "Cylinder.062",
            "primitives" : [
                {
                    "attributes" : {
                        "POSITION" : 0,
                        "NORMAL" : 1,
                        "TEXCOORD_0" : 2
                    },
                    "indices" : 3,
                    "material" : 0
                }
            ]
        },
        {
            "name" : "Cylinder.001",
            "primitives" : [
                {
                    "attributes" : {
                        "POSITION" : 4,
                        "NORMAL" : 5,
                        "TEXCOORD_0" : 6
                    },
                    "indices" : 7,
                    "material" : 1
                }
            ]
        }
    ],
    "accessors" : [
        {
            "bufferView" : 0,
            "componentType" : 5126,
            "count" : 222,
            "max" : [
                1.1296420097351074,
                12.729935646057129,
                0.39783790707588196
            ],
            "min" : [
                -1.995547890663147,
                -0.21332168579101562,
                -1.696357250213623
            ],
            "type" : "VEC3"
        },
        {
            "bufferView" : 1,
            "componentType" : 5126,
            "count" : 222,
            "type" : "VEC3"
        },
        {
            "bufferView" : 2,
            "componentType" : 5126,
            "count" : 222,
            "type" : "VEC2"
        },
        {
            "bufferView" : 3,
            "componentType" : 5123,
            "count" : 222,
            "type" : "SCALAR"
        },
        {
            "bufferView" : 4,
            "componentType" : 5126,
            "count" : 198,
            "max" : [
                1.040536642074585,
                13.503789901733398,
                1.7739745378494263
            ],
            "min" : [
                -2.4808526039123535,
                5.738407135009766,
                -1.6953600645065308
            ],
            "type" : "VEC3"
        },
        {
            "bufferView" : 5,
            "componentType" : 5126,
            "count" : 198,
            "type" : "VEC3"
        },
        {
            "bufferView" : 6,
            "componentType" : 5126,
            "count" : 198,
            "type" : "VEC2"
        },
        {
            "bufferView" : 7,
            "componentType" : 5123,
            "count" : 198,
            "type" : "SCALAR"
        }
    ],
    "bufferViews" : [
        {
            "buffer" : 0,
            "byteLength" : 2664,
            "byteOffset" : 0
        },
        {
            "buffer" : 0,
            "byteLength" : 2664,
            "byteOffset" : 2664
        },
        {
            "buffer" : 0,
            "byteLength" : 1776,
            "byteOffset" : 5328
        },
        {
            "buffer" : 0,
            "byteLength" : 444,
            "byteOffset" : 7104
        },
        {
            "buffer" : 0,
            "byteLength" : 2376,
            "byteOffset" : 7548
        },
        {
            "buffer" : 0,
            "byteLength" : 2376,
            "byteOffset" : 9924
        },
        {
            "buffer" : 0,
            "byteLength" : 1584,
            "byteOffset" : 12300
        },
        {
            "buffer" : 0,
            "byteLength" : 396,
            "byteOffset" : 13884
        }
    ],
    "buffers" : [
        {
            "byteLength" : 14280,
            "uri" : "data:application/octet-stream;base64,"
        }
    ]
}
